<?xml version="1.0" standalone="no"?>
<!DOCTYPE svg PUBLIC "-//W3C//DTD SVG 20010904//EN"
 "http://www.w3.org/TR/2001/REC-SVG-20010904/DTD/svg10.dtd">
<svg version="1.0" xmlns="http://www.w3.org/2000/svg"
 width="668.000000pt" height="660.000000pt" viewBox="0 0 668.000000 660.000000"
 preserveAspectRatio="xMidYMid meet">

<g transform="translate(0.000000,660.000000) scale(0.100000,-0.100000)"
fill="#000000" stroke="none">
<path d="M3318 6023 c-9 -10 -24 -34 -33 -53 -28 -54 -84 -125 -186 -235 -236
-256 -341 -422 -391 -623 -19 -75 -22 -115 -23 -284 0 -146 -3 -194 -12 -190
-6 4 -31 29 -55 56 -70 81 -218 197 -336 264 -217 124 -427 190 -702 218 -187
19 -271 39 -372 86 -76 36 -91 40 -113 30 -29 -13 -31 -33 -10 -111 7 -29 19
-105 24 -167 6 -63 16 -166 22 -229 16 -177 59 -304 154 -456 89 -142 274
-313 417 -385 38 -19 68 -38 68 -42 0 -4 -35 -18 -77 -31 -292 -85 -537 -287
-663 -546 -60 -125 -89 -238 -97 -380 -7 -129 14 -231 71 -352 96 -202 340
-428 485 -449 25 -4 109 -31 185 -61 l139 -55 161 4 c186 5 235 19 334 93 63
48 142 153 167 225 26 71 30 167 11 232 -34 120 -142 208 -253 208 -65 0 -101
-17 -136 -64 -34 -44 -34 -48 1 -30 32 16 111 18 165 3 86 -24 140 -109 141
-223 0 -90 -26 -156 -91 -226 -63 -69 -134 -107 -214 -116 -78 -9 -122 15
-188 105 -69 93 -103 177 -109 271 -12 210 116 383 342 461 205 71 472 38 649
-81 111 -74 210 -180 257 -275 83 -170 102 -313 99 -742 -2 -214 0 -316 8
-324 6 -6 23 -9 39 -7 27 3 29 7 37 63 4 33 6 224 4 425 -5 420 -12 466 -91
625 -147 293 -533 498 -860 455 -289 -38 -492 -195 -561 -435 -14 -45 -16 -83
-13 -169 6 -128 28 -189 95 -266 87 -100 106 -146 56 -134 -109 26 -245 130
-292 222 -61 121 -66 287 -13 442 16 47 37 101 47 120 29 55 184 203 260 248
227 132 567 147 826 37 88 -38 296 -185 365 -257 22 -24 53 -72 68 -108 38
-92 86 -153 140 -180 56 -26 50 46 46 -630 -1 -278 1 -526 5 -552 9 -57 35
-72 69 -39 21 21 21 27 27 609 4 323 7 588 8 590 0 1 19 9 41 18 49 20 109 86
143 157 31 65 185 244 255 297 129 97 378 170 578 170 144 0 320 -46 431 -111
84 -50 215 -178 250 -247 62 -116 78 -185 78 -323 l0 -126 -43 -86 c-49 -99
-117 -184 -169 -210 -19 -10 -60 -21 -89 -24 -71 -8 -71 6 -1 84 98 109 130
189 131 318 1 166 -42 265 -165 388 -151 150 -295 203 -529 194 -137 -5 -216
-25 -356 -93 -86 -42 -267 -184 -313 -245 -55 -74 -119 -218 -153 -344 l-32
-120 -1 -355 c0 -195 3 -366 6 -380 7 -34 62 -41 79 -10 8 14 10 121 9 348 -3
369 6 464 61 612 60 162 144 263 305 361 105 65 149 83 259 109 295 71 575
-49 694 -297 35 -73 37 -84 36 -168 0 -67 -6 -104 -22 -145 -28 -71 -139 -212
-181 -230 -103 -42 -305 61 -371 191 -62 120 -15 303 89 346 28 12 57 14 129
9 100 -7 109 -2 68 39 -27 27 -112 55 -166 55 -76 0 -167 -67 -213 -157 -29
-55 -41 -164 -27 -235 17 -90 49 -144 128 -221 127 -122 229 -151 482 -138
151 8 167 12 251 68 21 14 68 29 116 38 139 24 250 96 389 254 127 145 204
335 204 509 0 258 -113 509 -317 702 -141 134 -300 223 -480 271 -46 12 -83
25 -83 29 0 4 22 17 49 28 174 72 392 283 483 467 84 169 117 305 128 535 5
102 16 212 24 245 20 80 20 92 -5 106 -18 9 -34 5 -92 -22 -98 -45 -189 -67
-352 -84 -77 -9 -176 -22 -220 -31 -93 -18 -295 -86 -409 -139 -152 -69 -354
-217 -450 -328 -24 -28 -47 -49 -50 -46 -3 3 -1 54 4 115 21 230 -14 410 -120
612 -56 108 -118 186 -275 347 -143 146 -175 186 -219 273 -22 44 -31 52 -55
52 -15 0 -35 -8 -43 -17z m47 -145 c4 -11 82 -98 174 -192 92 -94 185 -196
208 -226 155 -207 218 -448 194 -735 -15 -171 -29 -220 -94 -324 -105 -165
-235 -444 -295 -631 -48 -147 -141 -582 -142 -662 0 -5 -5 -8 -10 -8 -8 0 -9
21 -4 63 5 34 8 454 9 932 1 479 5 888 9 911 7 37 5 43 -19 63 -35 27 -53 27
-82 -1 -25 -23 -30 -66 -13 -98 7 -12 11 -348 13 -946 1 -509 -1 -914 -5 -898
-3 16 -16 74 -27 129 -80 395 -158 659 -238 804 -20 36 -48 89 -61 116 -13 28
-58 107 -98 176 -91 154 -103 202 -111 444 -5 151 -3 183 17 280 31 154 83
273 156 355 12 14 29 39 37 55 9 17 44 60 79 96 133 141 245 265 262 292 22
33 32 34 41 5z m-2050 -759 c53 -16 137 -28 264 -39 318 -27 552 -116 812
-309 188 -139 374 -381 522 -676 118 -238 215 -549 267 -865 12 -69 24 -140
27 -157 10 -56 -11 -36 -40 40 -35 87 -113 220 -179 304 -66 83 -170 175 -303
265 -138 95 -201 126 -340 171 -124 40 -181 52 -310 67 -161 20 -353 121 -506
267 -110 105 -161 174 -219 296 -63 133 -78 193 -90 362 -10 137 -26 272 -36
308 -5 16 -1 16 48 -4 29 -12 66 -25 83 -30z m4191 24 c-3 -16 -10 -102 -16
-193 -5 -91 -15 -192 -21 -224 -31 -173 -154 -404 -281 -528 -82 -80 -158
-133 -285 -198 -111 -56 -134 -64 -240 -81 -179 -30 -297 -65 -418 -124 -171
-83 -314 -183 -446 -312 -97 -95 -124 -128 -168 -209 -30 -53 -66 -128 -81
-168 -86 -220 -19 251 87 609 34 117 158 415 194 465 9 14 29 50 43 80 27 57
42 80 116 183 154 215 340 374 565 486 196 97 359 141 595 161 141 11 237 30
305 61 54 24 58 23 51 -8z m-2126 -1118 c0 -19 -4 -35 -10 -35 -5 0 -10 16
-10 35 0 19 5 35 10 35 6 0 10 -16 10 -35z m-1150 -235 c229 -65 323 -116 536
-292 166 -136 333 -395 341 -527 3 -46 1 -52 -7 -32 -6 14 -27 45 -48 70 -54
67 -196 216 -204 214 -3 -1 -46 13 -95 32 -48 19 -140 47 -203 61 -106 24
-127 26 -275 21 -300 -10 -472 -85 -654 -283 -71 -78 -121 -170 -157 -289 -23
-77 -27 -109 -27 -225 -1 -127 1 -140 30 -225 18 -49 30 -91 28 -93 -5 -5
-131 92 -181 140 l-41 39 -6 157 c-4 118 -2 177 9 237 14 72 50 182 74 227 12
22 -9 39 -38 31 -22 -5 -31 -23 -12 -23 26 0 6 -17 -32 -27 -42 -11 -43 -12
-46 -60 -3 -47 -15 -73 -28 -60 -4 4 -2 13 4 20 7 8 14 40 16 72 2 37 1 53 -5
44 -4 -9 -10 -36 -11 -60 -2 -24 -6 -46 -10 -49 -3 -3 -10 -54 -14 -114 -5
-83 -4 -110 6 -116 7 -4 14 -34 16 -67 7 -99 19 -148 35 -145 8 2 11 0 6 -4
-4 -4 0 -16 10 -26 9 -10 11 -18 5 -18 -20 0 -125 144 -163 225 -51 109 -63
179 -56 328 6 149 23 214 85 335 122 240 404 443 691 497 109 21 322 13 421
-15z m2739 -1 c109 -28 283 -114 374 -186 175 -138 302 -331 342 -521 19 -89
19 -243 0 -317 -19 -71 -85 -215 -108 -234 -15 -12 -16 -8 -9 45 14 115 2 334
-19 334 -5 0 -9 -16 -9 -37 0 -20 -3 -34 -6 -30 -3 3 -17 -5 -31 -19 -13 -13
-28 -24 -33 -24 -6 0 -10 -46 -11 -107 0 -60 -4 -139 -8 -178 -5 -40 -4 -75 1
-82 6 -7 4 -13 -4 -16 -11 -4 -11 -7 0 -15 29 -20 -171 -162 -230 -162 -16 0
-15 6 13 63 42 82 57 142 65 254 12 167 -50 353 -161 482 -114 131 -265 227
-430 273 -69 19 -106 22 -275 22 -216 1 -218 0 -443 -83 -135 -50 -176 -79
-278 -194 -93 -103 -106 -114 -122 -98 -31 31 206 400 317 494 325 277 571
376 891 359 55 -2 133 -13 174 -23z m-1529 -838 c34 -24 70 -79 70 -108 0 -40
-28 -81 -73 -108 -62 -36 -98 -33 -147 11 -83 76 -68 168 35 215 44 20 76 17
115 -10z m2105 -451 c3 -6 -1 -7 -9 -4 -18 7 -21 14 -7 14 6 0 13 -4 16 -10z
m-5 -24 c0 -2 -7 -9 -15 -16 -13 -11 -14 -10 -9 4 5 14 24 23 24 12z"/>
<path d="M3306 5577 c-28 -26 -25 -37 11 -37 26 0 45 -15 56 -42 3 -10 14 -19
24 -19 10 -1 34 -3 54 -4 23 -1 44 -11 62 -29 14 -14 32 -26 39 -26 23 1 -175
180 -199 180 -12 0 -33 -11 -47 -23z"/>
<path d="M3566 5392 c-3 -5 1 -9 9 -9 8 0 12 4 9 9 -3 4 -7 8 -9 8 -2 0 -6 -4
-9 -8z"/>
<path d="M3492 5296 c35 -46 65 -82 66 -81 6 6 -70 119 -95 143 -42 39 -35 24
29 -62z"/>
<path d="M3645 5275 c4 -11 9 -32 12 -47 3 -16 9 -28 14 -28 14 0 10 22 -12
60 -11 19 -17 26 -14 15z"/>
<path d="M1411 4863 c0 -16 3 -46 7 -68 l7 -40 14 33 c7 17 19 32 26 32 8 0
16 6 19 13 5 10 7 10 12 0 9 -21 34 -15 34 7 0 11 8 24 18 28 20 8 -39 20
-100 21 -35 1 -38 -1 -37 -26z"/>
<path d="M1431 4724 c0 -11 3 -14 6 -6 3 7 2 16 -1 19 -3 4 -6 -2 -5 -13z"/>
<path d="M2158 4713 c6 -2 10 -8 8 -12 -3 -4 1 -8 9 -8 11 0 12 4 4 14 -6 7
-17 13 -23 12 -7 0 -6 -2 2 -6z"/>
<path d="M1440 4678 c0 -13 11 -49 24 -81 68 -164 211 -328 359 -409 47 -27
88 -48 91 -48 4 0 1 9 -6 20 -7 11 -19 20 -26 20 -7 0 -10 5 -7 10 3 6 15 10
26 10 10 0 18 3 18 8 -5 29 3 42 25 42 13 0 26 -4 28 -8 5 -13 159 -69 208
-76 61 -9 33 7 -47 28 -34 8 -103 36 -153 61 -50 25 -96 43 -102 39 -6 -4 -9
-3 -5 2 3 5 -13 22 -34 39 -34 25 -47 29 -99 27 -39 -1 -60 2 -60 9 0 8 -5 8
-15 -1 -12 -10 -16 -9 -21 3 -3 8 -16 18 -28 21 -14 3 -41 34 -72 82 -27 42
-48 79 -47 83 0 3 -5 17 -13 31 -7 14 -18 44 -24 68 -12 46 -20 55 -20 20z
m399 -357 l23 -18 -36 -1 c-39 -1 -39 -1 -30 22 8 20 13 20 43 -3z m58 -107
c-3 -3 -12 -4 -19 -1 -8 3 -5 6 6 6 11 1 17 -2 13 -5z"/>
<path d="M1920 4680 c8 -5 22 -9 30 -9 10 0 8 3 -5 9 -27 12 -43 12 -25 0z"/>
<path d="M2202 4655 c-2 -24 13 -35 20 -15 2 5 8 -2 15 -15 10 -22 9 -25 -7
-25 -10 0 -24 -2 -32 -3 -7 -2 -10 -2 -5 0 13 8 8 23 -8 23 -9 0 -15 -9 -15
-24 0 -20 -4 -23 -22 -19 -13 3 -42 21 -64 39 -23 18 -44 31 -46 28 -3 -2 -17
0 -32 5 -47 18 -28 4 72 -54 143 -84 274 -195 370 -313 20 -26 61 -76 90 -112
30 -36 61 -74 70 -85 15 -19 16 -19 25 8 8 25 18 32 41 28 5 -1 13 4 17 11 7
10 9 10 9 0 0 -7 12 -31 28 -55 15 -23 30 -51 34 -62 l6 -20 1 20 c1 26 -52
119 -79 138 -11 7 -17 16 -14 19 14 15 -116 205 -136 200 -7 -2 -10 3 -7 11 3
9 -21 41 -62 81 -55 54 -69 64 -80 54 -11 -11 -13 -9 -8 10 3 13 3 21 0 18 -3
-3 -14 6 -25 19 -11 14 -24 23 -29 19 -5 -3 -8 -1 -7 4 2 8 -104 92 -115 92
-2 0 -4 -11 -5 -25z m68 -90 c0 -8 -7 -15 -15 -15 -8 0 -15 7 -15 15 0 8 7 15
15 15 8 0 15 -7 15 -15z m85 -4 c3 -5 2 -12 -3 -15 -5 -3 -9 1 -9 9 0 17 3 19
12 6z m2 -53 c-3 -8 -6 -5 -6 6 -1 11 2 17 5 13 3 -3 4 -12 1 -19z m64 -5 c13
-16 12 -17 -3 -4 -10 7 -18 15 -18 17 0 8 8 3 21 -13z"/>
<path d="M1641 4510 c7 -14 21 -31 31 -39 11 -7 17 -19 15 -25 -3 -7 1 -13 9
-13 21 0 17 8 -27 57 -25 29 -36 36 -28 20z"/>
<path d="M1720 4413 c1 -11 50 -46 56 -40 3 3 -9 15 -25 27 -17 12 -31 18 -31
13z"/>
<path d="M1930 4127 c0 -3 15 -10 32 -16 18 -6 28 -7 23 -2 -12 10 -55 25 -55
18z"/>
<path d="M2165 4046 c17 -8 41 -16 55 -20 l25 -7 -25 14 c-14 8 -38 17 -55 20
l-30 6 30 -13z"/>
<path d="M2780 4004 c0 -6 7 -19 16 -30 14 -18 14 -18 3 6 -14 31 -19 36 -19
24z"/>
<path d="M2860 3857 c0 -15 28 -75 39 -81 6 -4 11 -4 11 1 0 11 -49 90 -50 80z"/>
<path d="M2736 3828 c16 -29 87 -128 91 -128 6 0 -4 15 -50 83 -22 31 -42 57
-44 57 -2 0 -1 -6 3 -12z"/>
<path d="M2926 3717 c3 -10 9 -15 12 -12 3 3 0 11 -7 18 -10 9 -11 8 -5 -6z"/>
<path d="M5184 4893 c-6 -5 -14 -24 -17 -43 -3 -19 -13 -69 -21 -110 -18 -91
-19 -103 -6 -95 6 3 10 -1 10 -9 0 -9 5 -16 10 -16 6 0 10 5 10 11 0 6 12 9
28 7 19 -2 27 -8 26 -21 -2 -13 1 -15 11 -7 24 20 56 154 53 221 l-3 64 -45 3
c-25 1 -50 -1 -56 -5z m6 -217 c0 -24 -15 -26 -28 -5 -11 16 -9 19 8 19 11 0
20 -6 20 -14z"/>
<path d="M4465 4651 c6 -11 4 -13 -8 -8 -26 10 -317 -280 -317 -317 0 -3 -21
-33 -47 -66 -43 -56 -45 -61 -30 -78 10 -10 17 -23 17 -28 1 -5 16 -16 34 -25
26 -12 33 -12 29 -2 -3 7 -9 13 -14 13 -29 0 13 63 49 72 25 7 26 5 12 -23
-20 -36 -2 -19 50 49 28 37 111 124 183 195 80 77 120 121 101 112 -17 -8 -39
-24 -49 -34 -15 -17 -19 -18 -31 -6 -17 16 -18 64 -3 85 9 13 10 12 5 -3 -3
-11 -2 -16 4 -12 6 3 10 13 10 21 0 8 4 13 9 9 12 -7 8 42 -4 53 -4 4 -4 1 0
-7z m-27 -41 c-7 -10 -14 -17 -17 -15 -4 4 18 35 25 35 2 0 -1 -9 -8 -20z
m-366 -412 c-7 -7 -12 -8 -12 -2 0 6 3 14 7 17 3 4 9 5 12 2 2 -3 -1 -11 -7
-17z"/>
<path d="M4682 4645 c-33 -14 -91 -55 -78 -55 9 0 116 61 116 66 0 5 0 5 -38
-11z"/>
<path d="M5104 4595 c-9 -14 -14 -28 -10 -32 3 -3 6 -1 6 5 0 7 7 12 15 12 8
0 15 9 15 20 0 26 -6 25 -26 -5z"/>
<path d="M4565 4570 c-3 -6 1 -7 9 -4 18 7 21 14 7 14 -6 0 -13 -4 -16 -10z"/>
<path d="M5029 4478 c-1 -7 0 -19 1 -27 1 -8 -4 -12 -14 -8 -32 13 -43 -44
-12 -65 5 -4 -1 -9 -15 -13 -23 -6 -40 -45 -19 -45 21 0 -4 -29 -30 -35 -21
-5 -27 -11 -23 -24 3 -12 -5 -26 -23 -40 -15 -12 -25 -24 -21 -27 10 -11 85
45 173 129 98 93 133 141 112 153 -7 4 -10 4 -6 -1 10 -11 -10 -45 -27 -45 -8
0 -15 7 -15 15 0 8 -7 15 -15 15 -8 0 -15 -4 -15 -10 0 -5 -7 -10 -15 -10 -9
0 -20 -12 -25 -26 -6 -14 -15 -22 -21 -19 -7 5 -3 15 11 30 13 14 17 25 11 29
-5 4 -8 13 -4 21 3 8 2 15 -1 15 -3 0 -7 -6 -7 -12z"/>
<path d="M4934 4386 c-10 -8 -16 -17 -13 -20 3 -3 14 3 24 14 21 23 17 26 -11
6z"/>
<path d="M4884 4344 c-18 -14 -18 -15 4 -4 12 6 22 13 22 15 0 8 -5 6 -26 -11z"/>
<path d="M4836 4315 c-11 -8 -15 -15 -9 -15 6 0 16 7 23 15 16 19 11 19 -14 0z"/>
<path d="M4017 4151 c-23 -40 -21 -49 4 -17 11 14 19 31 17 36 -2 6 -11 -2
-21 -19z"/>
<path d="M4159 4143 c-13 -16 -12 -17 4 -4 9 7 17 15 17 17 0 8 -8 3 -21 -13z"/>
<path d="M4710 4123 c-28 -9 -80 -34 -80 -38 0 -2 27 5 60 17 57 19 74 29 48
27 -7 0 -20 -3 -28 -6z"/>
<path d="M3976 4084 c-9 -24 -2 -26 12 -4 7 11 8 20 3 20 -5 0 -12 -7 -15 -16z"/>
<path d="M4204 3969 c-3 -6 -2 -15 3 -20 13 -13 43 -1 43 17 0 16 -36 19 -46
3z"/>
<path d="M2110 3639 c0 -5 26 -9 58 -8 64 1 60 5 -10 12 -27 2 -48 1 -48 -4z"/>
<path d="M1898 3623 c7 -3 16 -2 19 1 4 3 -2 6 -13 5 -11 0 -14 -3 -6 -6z"/>
<path d="M2238 3623 c6 -2 18 -2 25 0 6 3 1 5 -13 5 -14 0 -19 -2 -12 -5z"/>
<path d="M1823 3613 c-13 -2 -23 -9 -23 -14 0 -10 44 -2 70 12 12 7 11 8 -5 7
-11 0 -30 -3 -42 -5z"/>
<path d="M1760 3590 c-12 -8 -11 -10 8 -10 12 0 22 5 22 10 0 13 -11 13 -30 0z"/>
<path d="M2343 3582 c10 -10 23 -19 30 -19 6 0 24 -4 40 -8 47 -12 30 12 -20
29 -60 21 -70 20 -50 -2z"/>
<path d="M1681 3551 c-11 -11 -21 -17 -24 -15 -8 8 -57 -19 -57 -32 0 -10 7
-9 30 2 16 9 33 13 37 11 5 -3 14 1 21 9 7 8 10 14 5 14 -4 0 2 7 13 15 11 8
14 15 7 15 -7 0 -22 -9 -32 -19z"/>
<path d="M2270 3531 c0 -6 -9 -11 -21 -11 -11 0 -18 -4 -14 -10 3 -5 -7 -5
-25 2 -17 5 -34 8 -37 4 -4 -3 2 -6 13 -7 18 0 18 -1 -1 -8 -13 -5 19 -10 85
-13 58 -3 107 -4 109 -2 2 2 -8 8 -22 13 -14 5 -26 14 -28 20 -6 14 -59 26
-59 12z"/>
<path d="M2450 3460 c58 -20 115 -26 106 -11 -3 5 -27 12 -53 15 -27 4 -61 9
-78 11 -16 2 -5 -4 25 -15z"/>
<path d="M1366 3303 c-6 -14 -5 -15 5 -6 7 7 10 15 7 18 -3 3 -9 -2 -12 -12z"/>
<path d="M1545 3280 c-3 -6 1 -7 9 -4 18 7 21 14 7 14 -6 0 -13 -4 -16 -10z"/>
<path d="M1387 3095 c-4 -8 -13 -15 -22 -15 -15 0 -20 -12 -9 -23 4 -3 16 5
26 19 11 14 18 27 15 30 -2 3 -7 -2 -10 -11z"/>
<path d="M4701 3636 c2 -2 27 -6 54 -10 34 -4 45 -3 35 4 -14 9 -99 15 -89 6z"/>
<path d="M4899 3602 c14 -9 34 -17 45 -18 12 -1 30 -4 41 -8 11 -4 7 0 -10 7
-16 8 -46 19 -65 25 -35 11 -35 11 -11 -6z"/>
<path d="M4510 3553 c0 -7 -6 -13 -13 -13 -7 0 -13 -9 -13 -20 0 -21 7 -22
176 -24 25 -1 51 -5 58 -9 7 -5 12 -4 12 2 0 20 -5 26 -17 23 -20 -4 -15 16 5
21 15 4 -59 9 -158 11 -19 1 -38 6 -42 11 -5 6 -8 5 -8 -2z"/>
<path d="M4447 3520 c-3 -11 -3 -20 -1 -20 2 0 8 9 14 20 6 11 7 20 2 20 -6 0
-12 -9 -15 -20z"/>
<path d="M5110 3518 c8 -7 20 -26 26 -43 8 -25 15 -30 38 -28 21 2 26 -2 22
-13 -4 -10 0 -15 12 -13 33 3 43 -1 36 -13 -4 -7 -4 -10 1 -6 4 4 17 1 29 -7
25 -18 42 -20 24 -2 -31 30 -136 105 -168 121 -19 9 -28 11 -20 4z m65 -48 c3
-5 1 -10 -4 -10 -6 0 -11 5 -11 10 0 6 2 10 4 10 3 0 8 -4 11 -10z"/>
<path d="M4998 3395 c55 -27 121 -70 163 -106 39 -34 73 -58 77 -54 4 3 -4 14
-17 24 -13 10 -20 20 -15 23 5 3 4 4 -3 2 -6 -1 -26 12 -45 30 -36 35 -78 59
-174 100 -96 41 -89 31 14 -19z"/>
<path d="M5315 3350 c10 -32 13 -36 25 -24 7 7 3 17 -11 30 -22 19 -22 19 -14
-6z"/>
<path d="M5367 3299 c6 -6 9 -18 6 -26 -3 -9 2 -16 14 -19 10 -3 24 -17 31
-32 6 -15 23 -40 37 -57 21 -25 20 -21 -8 30 -47 86 -68 115 -80 115 -8 0 -8
-3 0 -11z"/>
<path d="M5264 3209 c-3 -6 -2 -15 3 -20 5 -5 9 -1 9 11 0 23 -2 24 -12 9z"/>
<path d="M5356 3067 c3 -10 9 -15 12 -12 3 3 0 11 -7 18 -10 9 -11 8 -5 -6z"/>
<path d="M1010 4047 c-27 -14 -70 -72 -70 -94 0 -8 15 -30 34 -49 48 -48 92
-47 135 1 38 44 39 76 4 114 -33 36 -69 46 -103 28z"/>
<path d="M5596 4019 c-45 -54 -30 -123 34 -149 24 -10 36 -10 60 0 66 27 81
101 31 151 -41 41 -90 40 -125 -2z"/>
<path d="M6031 1174 c-24 -31 -26 -43 -9 -79 26 -58 111 -32 115 36 0 19 -1
24 -3 13 -3 -12 -16 -32 -30 -45 -35 -33 -58 -17 -61 42 -1 39 -1 40 6 13 10
-38 19 -54 32 -54 6 0 6 7 1 18 -5 9 -12 30 -16 45 -10 41 14 30 30 -14 l12
-34 1 36 c1 55 -43 68 -78 23z"/>
<path d="M2060 989 c-111 -22 -225 -111 -277 -218 -26 -52 -28 -65 -28 -176 0
-113 2 -123 29 -175 35 -67 118 -150 183 -181 42 -21 62 -24 158 -24 92 0 118
4 158 22 74 35 169 132 212 218 45 91 53 150 31 234 -43 166 -157 274 -317
301 -73 11 -87 11 -149 -1z m153 -53 c73 -31 119 -113 137 -244 12 -92 6 -199
-16 -279 -34 -125 -161 -194 -271 -148 -50 21 -71 41 -99 97 -84 165 -64 452
37 544 45 40 152 56 212 30z"/>
<path d="M4471 901 c-50 -97 -70 -141 -170 -376 -88 -208 -100 -227 -158 -255
-29 -14 -51 -29 -49 -35 4 -13 266 -19 279 -6 6 6 -6 17 -32 30 -56 29 -61 56
-24 140 l29 66 109 6 c153 9 151 10 191 -77 42 -90 43 -110 4 -132 -62 -35
-40 -42 133 -42 160 0 209 9 177 30 -8 5 -21 10 -28 10 -48 0 -90 71 -182 300
-50 124 -179 411 -192 428 -21 25 -38 9 -87 -87z m30 -178 c6 -21 27 -68 45
-104 18 -37 30 -69 27 -73 -4 -3 -49 -6 -101 -6 l-94 0 7 27 c10 42 84 193 95
193 4 0 14 -17 21 -37z"/>
<path d="M600 977 c0 -7 16 -19 35 -26 19 -6 44 -24 55 -39 21 -26 21 -34 18
-307 -3 -310 -3 -307 -70 -345 -21 -12 -38 -26 -38 -31 0 -6 56 -8 143 -7 88
2 141 7 140 13 -1 6 -10 12 -20 13 -10 2 -29 14 -41 25 -49 45 -52 62 -52 287
0 117 4 210 9 208 4 -1 50 -52 101 -113 157 -188 400 -445 420 -445 18 0 19
17 22 333 l3 334 28 36 c15 20 32 37 37 37 5 0 21 5 37 11 22 8 24 12 13 19
-19 12 -287 13 -294 1 -4 -5 14 -19 39 -31 25 -12 50 -32 57 -43 14 -26 31
-403 19 -424 -6 -12 -15 -5 -42 28 -59 75 -239 280 -334 382 l-92 97 -96 0
c-73 0 -97 -3 -97 -13z"/>
<path d="M2850 976 c0 -8 10 -18 23 -21 65 -18 77 -28 88 -67 13 -50 1 -519
-15 -568 -8 -26 -23 -40 -59 -59 -39 -19 -45 -27 -35 -36 18 -17 270 -5 276
13 2 6 -4 12 -13 12 -9 0 -32 15 -51 34 l-34 34 0 210 c0 116 3 218 6 227 8
20 93 -151 185 -369 58 -139 79 -177 79 -143 0 10 13 41 29 70 16 28 36 75 44
102 8 28 24 66 37 85 45 72 140 245 140 258 0 6 4 12 9 12 12 0 17 -163 11
-340 l-5 -145 -37 -18 c-21 -10 -38 -25 -38 -33 0 -12 30 -14 169 -14 110 0
172 4 176 11 9 14 2 20 -36 28 -66 13 -68 23 -71 347 -3 327 -5 321 71 345 89
28 53 41 -108 37 l-114 -3 -37 -90 c-33 -79 -81 -180 -161 -337 -13 -26 -28
-46 -33 -44 -6 1 -22 31 -37 67 -15 35 -61 141 -101 234 l-74 170 -142 3
c-119 2 -142 0 -142 -12z"/>
<path d="M5220 980 c0 -5 21 -20 47 -32 33 -16 49 -31 53 -48 3 -14 6 -155 5
-313 l0 -289 -28 -24 c-15 -13 -35 -24 -43 -24 -9 0 -14 -7 -12 -18 2 -9 7
-16 11 -14 4 1 75 2 158 2 138 0 150 1 147 18 -2 9 -13 18 -26 20 -44 7 -53
38 -50 183 l3 134 174 3 174 2 -6 -141 c-7 -152 -14 -171 -63 -183 -14 -4 -24
-12 -21 -19 3 -9 52 -13 176 -15 158 -2 172 -1 169 15 -2 9 -17 20 -35 25 -60
15 -61 24 -64 338 -3 262 -2 287 15 313 10 15 32 31 50 35 17 5 32 16 34 25 3
15 -12 17 -167 17 -103 0 -172 -4 -176 -10 -3 -6 14 -19 39 -30 l46 -19 0
-140 0 -140 -162 -3 c-90 -2 -170 -2 -178 0 -13 3 -14 23 -10 131 5 139 14
162 66 175 13 4 24 13 24 21 0 13 -27 15 -175 15 -108 0 -175 -4 -175 -10z"/>
</g>
</svg>
